<svg xmlns="http://www.w3.org/2000/svg" width="34" height="34" fill="none" viewBox="0 0 34 34"><path stroke="url(#paint0_linear_461_5)" stroke-linecap="round" stroke-linejoin="round" stroke-width="2" d="M22.666 11.3333C24.9204 11.3333 27.0824 12.2288 28.6764 13.8228C30.2705 15.4169 31.166 17.5789 31.166 19.8333V29.7499H25.4993V19.8333C25.4993 19.0818 25.2008 18.3611 24.6695 17.8298C24.1381 17.2984 23.4175 16.9999 22.666 16.9999C21.9146 16.9999 21.1939 17.2984 20.6625 17.8298C20.1312 18.3611 19.8327 19.0818 19.8327 19.8333V29.7499H14.166V19.8333C14.166 17.5789 15.0615 15.4169 16.6556 13.8228C18.2497 12.2288 20.4117 11.3333 22.666 11.3333V11.3333Z"/><path stroke="url(#paint1_linear_461_5)" stroke-linecap="round" stroke-linejoin="round" stroke-width="2" d="M8.50065 12.75H2.83398V29.75H8.50065V12.75Z"/><path stroke="url(#paint2_linear_461_5)" stroke-linecap="round" stroke-linejoin="round" stroke-width="2" d="M5.66732 8.49992C7.23212 8.49992 8.50065 7.23139 8.50065 5.66659C8.50065 4.10178 7.23212 2.83325 5.66732 2.83325C4.10251 2.83325 2.83398 4.10178 2.83398 5.66659C2.83398 7.23139 4.10251 8.49992 5.66732 8.49992Z"/><defs><linearGradient id="paint0_linear_461_5" x1="14.891" x2="32.3" y1="13.923" y2="14.309" gradientUnits="userSpaceOnUse"><stop stop-color="#39AFFD"/><stop offset="1" stop-color="#477FFF"/></linearGradient><linearGradient id="paint1_linear_461_5" x1="3.076" x2="8.881" y1="15.141" y2="15.187" gradientUnits="userSpaceOnUse"><stop stop-color="#39AFFD"/><stop offset="1" stop-color="#477FFF"/></linearGradient><linearGradient id="paint2_linear_461_5" x1="3.076" x2="8.878" y1="3.63" y2="3.77" gradientUnits="userSpaceOnUse"><stop stop-color="#39AFFD"/><stop offset="1" stop-color="#477FFF"/></linearGradient></defs></svg>